<?xml version="1.0" standalone="no"?>
<!DOCTYPE svg PUBLIC "-//W3C//DTD SVG 20010904//EN"
 "http://www.w3.org/TR/2001/REC-SVG-20010904/DTD/svg10.dtd">
<svg version="1.0" xmlns="http://www.w3.org/2000/svg"
 width="2048.000000pt" height="2048.000000pt" viewBox="0 0 2048.000000 2048.000000"
 preserveAspectRatio="xMidYMid meet">

<g transform="translate(0.000000,2048.000000) scale(0.100000,-0.100000)"
fill="#000000" stroke="none">
<path d="M9800 19190 c-1108 -61 -2120 -296 -3110 -722 -1733 -746 -3214
-2054 -4174 -3686 -120 -204 -160 -278 -271 -497 -807 -1592 -1117 -3381 -894
-5165 312 -2505 1674 -4763 3754 -6222 1826 -1280 4064 -1829 6292 -1543 2471
318 4699 1659 6153 3705 1278 1798 1844 4009 1589 6215 -280 2429 -1538 4627
-3499 6114 -1318 999 -2887 1610 -4545 1770 -338 33 -982 48 -1295 31z m1005
-1290 c1245 -102 2345 -450 3375 -1068 2101 -1259 3477 -3437 3705 -5862 187
-1996 -396 -3957 -1638 -5514 -1196 -1498 -2892 -2492 -4772 -2796 -849 -138
-1755 -130 -2590 20 -1554 281 -2958 1015 -4074 2131 -1762 1761 -2554 4237
-2145 6704 284 1707 1154 3285 2454 4448 1309 1170 2947 1847 4715 1947 186
11 795 4 970 -10z"/>
<path d="M8465 11514 c-1235 -102 -1896 -866 -2050 -2369 -8 -77 -15 -146 -15
-152 0 -10 158 -13 759 -13 l758 0 18 93 c72 373 222 672 413 822 78 62 196
121 289 147 103 28 338 30 458 4 256 -56 433 -143 895 -441 416 -268 636 -387
888 -480 491 -181 1083 -214 1583 -89 752 187 1247 719 1483 1594 55 204 108
523 131 788 l6 72 -758 0 -758 0 -24 -112 c-91 -442 -285 -757 -545 -883 -129
-63 -203 -79 -366 -79 -152 0 -254 17 -401 65 -189 63 -337 142 -713 382 -485
309 -677 411 -961 510 -283 98 -508 137 -825 141 -118 2 -237 2 -265 0z"/>
</g>
</svg>
